# xmcd
#
# Track frame offsets:
#	150
#	11717
#	24899
#	39184
#	55861
#	66004
#	80023
#	95415
#	104682
#	116235
#	125186
#	138055
#	150578
#	164593
#	178537
#	190812
#	207111
#	216591
#	225644
#	242494
#	254962
#	266141
#	277959
#
# Disc length: 3876 seconds
#
# Revision: 1
# Processed by: cddbd v1.5.1PL0 Copyright (c) Steve Scherf et al.
# Submitted via: audiograbber 1.81.02
#
DISCID=4f0f2217
DTITLE=Ink Spots, The - Hot Numbers
DYEAR=1900
DGENRE=
TTITLE0=Into Each Life Some Rain Must Fall
TTITLE1=To Each His Own
TTITLE2=Blueberry Hill
TTITLE3=With My Eyes Wide Open I'm Dreaming
TTITLE4=When The Saints Go Marching In
TTITLE5=I'll Get By
TTITLE6=I'd Climb The Highest Mountain
TTITLE7=When My Dreamboat Comes Home
TTITLE8=The Gypsy
TTITLE9=You Always Hurt The One You Love
TTITLE10=Whispering Grass
TTITLE11=Making Believe
TTITLE12=I Don't Want To Set The World On Fire
TTITLE13=It's A Sin To Tell A Lie
TTITLE14=I'm Confessin' That I Love You
TTITLE15=There Goes My Heart
TTITLE16=Marie
TTITLE17=Love Is Strange
TTITLE18=My Prayer
TTITLE19=Just In Case You Change Your Mind
TTITLE20=Little Coquette
TTITLE21=Stone Code Dead In The Market
TTITLE22=Until The Real Thing Comes Along
EXTD=
EXTT0=
EXTT1=
EXTT2=
EXTT3=
EXTT4=
EXTT5=
EXTT6=
EXTT7=
EXTT8=
EXTT9=
EXTT10=
EXTT11=
EXTT12=
EXTT13=
EXTT14=
EXTT15=
EXTT16=
EXTT17=
EXTT18=
EXTT19=
EXTT20=
EXTT21=
EXTT22=
PLAYORDER=
